<svg xmlns="http://www.w3.org/2000/svg" xmlns:xlink="http://www.w3.org/1999/xlink" width="500" zoomAndPan="magnify" viewBox="0 0 375 374.999991" height="500" preserveAspectRatio="xMidYMid meet" version="1.0"><defs><g/><clipPath id="0330003b0b"><path d="M 133 232 L 194 232 L 194 274.660156 L 133 274.660156 Z M 133 232 " clip-rule="nonzero"/></clipPath><clipPath id="cc49b74fb8"><path d="M 107 63 L 301.867188 63 L 301.867188 274.660156 L 107 274.660156 Z M 107 63 " clip-rule="nonzero"/></clipPath><clipPath id="844d14f205"><path d="M 153 14.410156 L 243 14.410156 L 243 88 L 153 88 Z M 153 14.410156 " clip-rule="nonzero"/></clipPath><clipPath id="6fb5060a91"><path d="M 61.867188 67 L 119 67 L 119 264 L 61.867188 264 Z M 61.867188 67 " clip-rule="nonzero"/></clipPath></defs><path fill="#a6a6a6" d="M 150.722656 206.984375 L 121.941406 189.269531 L 107.179688 204.035156 L 95.582031 262.128906 L 150.722656 206.984375 " fill-opacity="1" fill-rule="nonzero"/><g clip-path="url(#0330003b0b)"><path fill="#a6a6a6" d="M 175.921875 232.183594 L 133.332031 274.765625 L 179.824219 274.765625 L 193.632812 260.960938 L 175.921875 232.183594 " fill-opacity="1" fill-rule="nonzero"/></g><g clip-path="url(#cc49b74fb8)"><path fill="#000000" d="M 238.75 91.980469 C 234.382812 91.980469 230.84375 88.441406 230.84375 84.070312 C 230.84375 79.699219 234.382812 76.15625 238.75 76.15625 C 243.125 76.15625 246.667969 79.699219 246.667969 84.070312 C 246.667969 88.441406 243.125 91.980469 238.75 91.980469 Z M 156.980469 91.980469 C 152.609375 91.980469 149.066406 88.441406 149.066406 84.070312 C 149.066406 79.699219 152.609375 76.15625 156.980469 76.15625 C 161.351562 76.15625 164.890625 79.699219 164.890625 84.070312 C 164.890625 88.441406 161.351562 91.980469 156.980469 91.980469 Z M 301.597656 269.367188 L 269.308594 67.558594 C 268.886719 65.445312 267.03125 63.925781 264.875 63.925781 L 130.855469 63.925781 C 128.703125 63.925781 126.847656 65.445312 126.425781 67.558594 L 107.179688 204.035156 L 121.941406 189.269531 L 219.871094 163.03125 L 193.632812 260.960938 L 179.824219 274.765625 L 297.167969 274.765625 C 300.019531 274.765625 302.15625 272.164062 301.597656 269.367188 " fill-opacity="1" fill-rule="nonzero"/></g><g clip-path="url(#844d14f205)"><path fill="#a6a6a6" d="M 238.757812 87.515625 C 236.855469 87.515625 235.308594 85.96875 235.308594 84.070312 C 235.308594 65.148438 231.363281 49.066406 223.890625 37.554688 C 217.148438 27.164062 207.902344 21.445312 197.867188 21.445312 C 187.824219 21.445312 178.585938 27.164062 171.84375 37.554688 C 164.371094 49.066406 160.421875 65.148438 160.421875 84.070312 C 160.421875 85.96875 158.878906 87.515625 156.980469 87.515625 C 155.078125 87.515625 153.535156 85.96875 153.535156 84.070312 C 153.535156 63.816406 157.867188 46.433594 166.066406 33.804688 C 174.121094 21.394531 185.417969 14.558594 197.867188 14.558594 C 210.316406 14.558594 221.609375 21.394531 229.667969 33.804688 C 237.867188 46.433594 242.199219 63.816406 242.199219 84.070312 C 242.199219 85.96875 240.652344 87.515625 238.757812 87.515625 " fill-opacity="1" fill-rule="nonzero"/></g><g clip-path="url(#6fb5060a91)"><path fill="#a6a6a6" d="M 118.4375 67.558594 L 61.847656 258.804688 L 78.476562 253.472656 L 86.363281 263.34375 L 118.4375 67.558594 " fill-opacity="1" fill-rule="nonzero"/></g><g fill="#000000" fill-opacity="1"><g transform="translate(94.585318, 341.239723)"><g><path d="M 15.25 -26.625 L 15.25 -23.234375 C 15.25 -22.847656 15.066406 -22.65625 14.703125 -22.65625 L 6.21875 -22.65625 L 6.21875 -15.859375 L 12.703125 -15.859375 C 13.066406 -15.859375 13.25 -15.664062 13.25 -15.28125 L 13.25 -11.921875 C 13.25 -11.535156 13.066406 -11.34375 12.703125 -11.34375 L 6.21875 -11.34375 L 6.21875 -4.484375 L 14.703125 -4.484375 C 15.066406 -4.484375 15.25 -4.300781 15.25 -3.9375 L 15.25 -0.546875 C 15.25 -0.179688 15.066406 0 14.703125 0 L 2.203125 0 C 1.867188 0 1.703125 -0.179688 1.703125 -0.546875 L 1.703125 -26.625 C 1.703125 -26.988281 1.867188 -27.171875 2.203125 -27.171875 L 14.703125 -27.171875 C 15.066406 -27.171875 15.25 -26.988281 15.25 -26.625 Z M 15.25 -26.625 "/></g></g></g><g fill="#000000" fill-opacity="1"><g transform="translate(111.535529, 341.239723)"><g><path d="M 1.703125 -10.671875 L 1.703125 -13.796875 C 1.703125 -14.242188 1.925781 -14.46875 2.375 -14.46875 L 7.75 -14.46875 C 8.195312 -14.46875 8.421875 -14.242188 8.421875 -13.796875 L 8.421875 -10.671875 C 8.421875 -10.210938 8.195312 -9.984375 7.75 -9.984375 L 2.375 -9.984375 C 1.925781 -9.984375 1.703125 -10.210938 1.703125 -10.671875 Z M 1.703125 -10.671875 "/></g></g></g><g fill="#000000" fill-opacity="1"><g transform="translate(121.658101, 341.239723)"><g><path d="M 15.3125 -22.28125 L 15.3125 -18.609375 C 15.3125 -18.253906 15.132812 -18.078125 14.78125 -18.078125 L 11.375 -18.078125 C 11.019531 -18.078125 10.84375 -18.253906 10.84375 -18.609375 L 10.84375 -21.328125 C 10.84375 -22.234375 10.390625 -22.6875 9.484375 -22.6875 L 7.703125 -22.6875 C 6.804688 -22.6875 6.359375 -22.234375 6.359375 -21.328125 L 6.359375 -5.84375 C 6.359375 -4.9375 6.804688 -4.484375 7.703125 -4.484375 L 9.484375 -4.484375 C 10.390625 -4.484375 10.84375 -4.9375 10.84375 -5.84375 L 10.84375 -8.5625 C 10.84375 -8.925781 11.019531 -9.109375 11.375 -9.109375 L 14.78125 -9.109375 C 15.132812 -9.109375 15.3125 -8.925781 15.3125 -8.5625 L 15.3125 -4.890625 C 15.3125 -3.304688 14.894531 -2.09375 14.0625 -1.25 C 13.226562 -0.414062 12.015625 0 10.421875 0 L 6.625 0 C 5.039062 0 3.820312 -0.414062 2.96875 -1.25 C 2.125 -2.09375 1.703125 -3.304688 1.703125 -4.890625 L 1.703125 -22.28125 C 1.703125 -23.882812 2.125 -25.097656 2.96875 -25.921875 C 3.820312 -26.753906 5.039062 -27.171875 6.625 -27.171875 L 10.421875 -27.171875 C 12.015625 -27.171875 13.226562 -26.753906 14.0625 -25.921875 C 14.894531 -25.097656 15.3125 -23.882812 15.3125 -22.28125 Z M 15.3125 -22.28125 "/></g></g></g><g fill="#000000" fill-opacity="1"><g transform="translate(138.676253, 341.239723)"><g><path d="M 1.703125 -4.890625 L 1.703125 -22.28125 C 1.703125 -23.882812 2.117188 -25.097656 2.953125 -25.921875 C 3.796875 -26.753906 5.007812 -27.171875 6.59375 -27.171875 L 10.390625 -27.171875 C 12.003906 -27.171875 13.222656 -26.753906 14.046875 -25.921875 C 14.867188 -25.097656 15.28125 -23.882812 15.28125 -22.28125 L 15.28125 -4.890625 C 15.28125 -3.304688 14.867188 -2.09375 14.046875 -1.25 C 13.222656 -0.414062 12.003906 0 10.390625 0 L 6.59375 0 C 5.007812 0 3.796875 -0.414062 2.953125 -1.25 C 2.117188 -2.09375 1.703125 -3.304688 1.703125 -4.890625 Z M 7.578125 -4.375 L 9.546875 -4.375 C 10.453125 -4.375 10.90625 -4.828125 10.90625 -5.734375 L 10.90625 -21.4375 C 10.90625 -22.34375 10.453125 -22.796875 9.546875 -22.796875 L 7.578125 -22.796875 C 6.671875 -22.796875 6.21875 -22.34375 6.21875 -21.4375 L 6.21875 -5.734375 C 6.21875 -4.828125 6.671875 -4.375 7.578125 -4.375 Z M 7.578125 -4.375 "/></g></g></g><g fill="#000000" fill-opacity="1"><g transform="translate(155.660435, 341.239723)"><g><path d="M 15.890625 -27.171875 L 20.375 -27.171875 C 20.832031 -27.171875 21.0625 -26.945312 21.0625 -26.5 L 21.0625 -0.671875 C 21.0625 -0.222656 20.832031 0 20.375 0 L 17.21875 0 C 16.769531 0 16.546875 -0.222656 16.546875 -0.671875 L 16.546875 -15.96875 L 16.3125 -15.96875 L 12.9375 -0.609375 C 12.851562 -0.203125 12.601562 0 12.1875 0 L 10.53125 0 C 10.144531 0 9.894531 -0.203125 9.78125 -0.609375 L 6.421875 -15.96875 L 6.1875 -15.96875 L 6.1875 -0.671875 C 6.1875 -0.222656 5.957031 0 5.5 0 L 2.375 0 C 1.925781 0 1.703125 -0.222656 1.703125 -0.671875 L 1.703125 -26.5 C 1.703125 -26.945312 1.925781 -27.171875 2.375 -27.171875 L 6.859375 -27.171875 C 7.265625 -27.171875 7.515625 -26.96875 7.609375 -26.5625 L 11.375 -9.640625 L 15.15625 -26.5625 C 15.257812 -26.96875 15.503906 -27.171875 15.890625 -27.171875 Z M 15.890625 -27.171875 "/></g></g></g><g fill="#000000" fill-opacity="1"><g transform="translate(178.419237, 341.239723)"><g><path d="M 15.890625 -27.171875 L 20.375 -27.171875 C 20.832031 -27.171875 21.0625 -26.945312 21.0625 -26.5 L 21.0625 -0.671875 C 21.0625 -0.222656 20.832031 0 20.375 0 L 17.21875 0 C 16.769531 0 16.546875 -0.222656 16.546875 -0.671875 L 16.546875 -15.96875 L 16.3125 -15.96875 L 12.9375 -0.609375 C 12.851562 -0.203125 12.601562 0 12.1875 0 L 10.53125 0 C 10.144531 0 9.894531 -0.203125 9.78125 -0.609375 L 6.421875 -15.96875 L 6.1875 -15.96875 L 6.1875 -0.671875 C 6.1875 -0.222656 5.957031 0 5.5 0 L 2.375 0 C 1.925781 0 1.703125 -0.222656 1.703125 -0.671875 L 1.703125 -26.5 C 1.703125 -26.945312 1.925781 -27.171875 2.375 -27.171875 L 6.859375 -27.171875 C 7.265625 -27.171875 7.515625 -26.96875 7.609375 -26.5625 L 11.375 -9.640625 L 15.15625 -26.5625 C 15.257812 -26.96875 15.503906 -27.171875 15.890625 -27.171875 Z M 15.890625 -27.171875 "/></g></g></g><g fill="#000000" fill-opacity="1"><g transform="translate(201.17804, 341.239723)"><g><path d="M 15.25 -26.625 L 15.25 -23.234375 C 15.25 -22.847656 15.066406 -22.65625 14.703125 -22.65625 L 6.21875 -22.65625 L 6.21875 -15.859375 L 12.703125 -15.859375 C 13.066406 -15.859375 13.25 -15.664062 13.25 -15.28125 L 13.25 -11.921875 C 13.25 -11.535156 13.066406 -11.34375 12.703125 -11.34375 L 6.21875 -11.34375 L 6.21875 -4.484375 L 14.703125 -4.484375 C 15.066406 -4.484375 15.25 -4.300781 15.25 -3.9375 L 15.25 -0.546875 C 15.25 -0.179688 15.066406 0 14.703125 0 L 2.203125 0 C 1.867188 0 1.703125 -0.179688 1.703125 -0.546875 L 1.703125 -26.625 C 1.703125 -26.988281 1.867188 -27.171875 2.203125 -27.171875 L 14.703125 -27.171875 C 15.066406 -27.171875 15.25 -26.988281 15.25 -26.625 Z M 15.25 -26.625 "/></g></g></g><g fill="#000000" fill-opacity="1"><g transform="translate(218.12825, 341.239723)"><g><path d="M 15.65625 -22.28125 L 15.65625 -14 C 15.65625 -11.726562 14.832031 -10.234375 13.1875 -9.515625 L 15.53125 -0.609375 C 15.632812 -0.203125 15.472656 0 15.046875 0 L 11.515625 0 C 11.203125 0 11.007812 -0.15625 10.9375 -0.46875 L 8.65625 -9.109375 L 6.3125 -9.109375 L 6.3125 -0.546875 C 6.3125 -0.179688 6.132812 0 5.78125 0 L 2.234375 0 C 1.878906 0 1.703125 -0.179688 1.703125 -0.546875 L 1.703125 -26.625 C 1.703125 -26.988281 1.878906 -27.171875 2.234375 -27.171875 L 10.765625 -27.171875 C 12.378906 -27.171875 13.597656 -26.753906 14.421875 -25.921875 C 15.242188 -25.097656 15.65625 -23.882812 15.65625 -22.28125 Z M 6.3125 -13.59375 L 9.6875 -13.59375 C 10.59375 -13.59375 11.046875 -14.046875 11.046875 -14.953125 L 11.046875 -21.328125 C 11.046875 -22.234375 10.59375 -22.6875 9.6875 -22.6875 L 6.3125 -22.6875 Z M 6.3125 -13.59375 "/></g></g></g><g fill="#000000" fill-opacity="1"><g transform="translate(235.486084, 341.239723)"><g><path d="M 15.3125 -22.28125 L 15.3125 -18.609375 C 15.3125 -18.253906 15.132812 -18.078125 14.78125 -18.078125 L 11.375 -18.078125 C 11.019531 -18.078125 10.84375 -18.253906 10.84375 -18.609375 L 10.84375 -21.328125 C 10.84375 -22.234375 10.390625 -22.6875 9.484375 -22.6875 L 7.703125 -22.6875 C 6.804688 -22.6875 6.359375 -22.234375 6.359375 -21.328125 L 6.359375 -5.84375 C 6.359375 -4.9375 6.804688 -4.484375 7.703125 -4.484375 L 9.484375 -4.484375 C 10.390625 -4.484375 10.84375 -4.9375 10.84375 -5.84375 L 10.84375 -8.5625 C 10.84375 -8.925781 11.019531 -9.109375 11.375 -9.109375 L 14.78125 -9.109375 C 15.132812 -9.109375 15.3125 -8.925781 15.3125 -8.5625 L 15.3125 -4.890625 C 15.3125 -3.304688 14.894531 -2.09375 14.0625 -1.25 C 13.226562 -0.414062 12.015625 0 10.421875 0 L 6.625 0 C 5.039062 0 3.820312 -0.414062 2.96875 -1.25 C 2.125 -2.09375 1.703125 -3.304688 1.703125 -4.890625 L 1.703125 -22.28125 C 1.703125 -23.882812 2.125 -25.097656 2.96875 -25.921875 C 3.820312 -26.753906 5.039062 -27.171875 6.625 -27.171875 L 10.421875 -27.171875 C 12.015625 -27.171875 13.226562 -26.753906 14.0625 -25.921875 C 14.894531 -25.097656 15.3125 -23.882812 15.3125 -22.28125 Z M 15.3125 -22.28125 "/></g></g></g><g fill="#000000" fill-opacity="1"><g transform="translate(252.504236, 341.239723)"><g><path d="M 15.25 -26.625 L 15.25 -23.234375 C 15.25 -22.847656 15.066406 -22.65625 14.703125 -22.65625 L 6.21875 -22.65625 L 6.21875 -15.859375 L 12.703125 -15.859375 C 13.066406 -15.859375 13.25 -15.664062 13.25 -15.28125 L 13.25 -11.921875 C 13.25 -11.535156 13.066406 -11.34375 12.703125 -11.34375 L 6.21875 -11.34375 L 6.21875 -4.484375 L 14.703125 -4.484375 C 15.066406 -4.484375 15.25 -4.300781 15.25 -3.9375 L 15.25 -0.546875 C 15.25 -0.179688 15.066406 0 14.703125 0 L 2.203125 0 C 1.867188 0 1.703125 -0.179688 1.703125 -0.546875 L 1.703125 -26.625 C 1.703125 -26.988281 1.867188 -27.171875 2.203125 -27.171875 L 14.703125 -27.171875 C 15.066406 -27.171875 15.25 -26.988281 15.25 -26.625 Z M 15.25 -26.625 "/></g></g></g></svg>